<svg width="20" height="20" viewBox="0 0 20 20" fill="none" xmlns="http://www.w3.org/2000/svg">
<path d="M4.99996 12L1.37596 8.99999C0.691965 8.45299 0.991965 7.35299 1.85996 7.22899L6.99996 6.99999L9.19496 1.49699C9.26971 1.34749 9.38461 1.22175 9.52679 1.13387C9.66897 1.046 9.83282 0.999451 9.99996 0.999451C10.1671 0.999451 10.331 1.046 10.4731 1.13387C10.6153 1.22175 10.7302 1.34749 10.805 1.49699L13 6.99999L18.14 7.22899C19.008 7.35299 19.308 8.45299 18.624 8.99999L15 12L15.989 17.857C16.0148 18.0376 15.9907 18.2219 15.9193 18.3898C15.8479 18.5578 15.7319 18.7029 15.5838 18.8097C15.4358 18.9164 15.2614 18.9806 15.0795 18.9952C14.8976 19.0099 14.7152 18.9746 14.552 18.893L9.99996 16L5.44796 18.892C5.28474 18.9736 5.10229 19.0089 4.92041 18.9942C4.73852 18.9796 4.56412 18.9154 4.41609 18.8087C4.26807 18.7019 4.15207 18.5568 4.08066 18.3888C4.00925 18.2209 3.98514 18.0366 4.01096 17.856L4.99996 12Z" fill="#4338CA"/>
</svg>
